<?xml version="1.0" encoding="UTF-8"?>
<svg id="Layer_2" data-name="Layer 2" xmlns="http://www.w3.org/2000/svg" viewBox="0 0 1080 1080">
  <defs>
    <style>
      .cls-1 {
        fill: #f2ebfd;
      }

      .cls-2 {
        fill: #b59ae4;
      }
    </style>
  </defs>
  <g>
    <path class="cls-2" d="m264.1,398.36c19.77,0,39.54-.27,59.3.15,6.52.14,7.93-1.99,7.93-8.18-.09-106.2.11-212.39.04-318.59,0-11.02,3.33-19.89,12.52-26.18,2.7-1.85,5.68-4.12,9.11-2.71,4.01,1.66,2.59,5.67,2.6,8.76.12,76.98.17,153.96.23,230.94.02,36.58.16,73.17-.1,109.75-.04,5.73,1.47,7.26,7.17,7.14,14.97-.31,14.98-.02,14.99,14.96,0,11.94-.16,23.88.09,35.82.09,4.37-1.4,5.66-5.68,5.63-5.23-.03-12.16-2.49-15.31,1.12-3.31,3.8-1.01,10.68-1.04,16.21-.11,19.05.21,38.11-.08,57.16-.25,16.76,12.34,29.58,26.23,33.21,15.52,4.05,32.62-4.86,39.01-19.57,2.73-6.27,3.34-13.12,3.34-19.98.07-155.23.17-310.46.26-465.69q0-12.53,12.64-12.53c61.74.03,123.49-.69,185.2.36,39.5.67,78.55,5.99,114.96,23.09,45.98,21.6,74.85,57.09,84.28,107.08,4.82,25.53,6.64,51.7,1.85,77.47-6.55,35.2-19.55,67.2-46.3,92.92-30.37,29.2-67.03,44.28-107.33,52.64-31.28,6.49-62.95,4.35-94.51,4.73-7.62.09-15.26.29-22.86-.09-4.75-.23-6.08,1.34-5.98,6.02.29,14.22.12,28.45.13,42.68.01,42.68-.1,85.36.18,128.05.04,6.14-1.77,7.56-7.67,7.53-49.54-.23-99.08-.15-148.62-.13-28.9,0-51.49-19.4-58.21-45.33-1.37-5.28-1.26-11.02-1.29-16.56-.13-20.32-.34-40.66.16-60.97.18-7.33-1.19-10.05-9.34-9.76-19.73.71-39.51.23-60.57-1.46,7.97-7.58,15.78-15.34,23.96-22.68,3.68-3.3,4.02-5.45.12-8.87-7.97-6.98-15.54-14.41-23.28-21.66.63-.83,1.25-1.66,1.88-2.49Zm282.52-173.76h.1c0,25.13,0,50.26,0,75.39,0,3.17-.96,6.78,4.53,6.52,32.24-1.53,64.81,3.74,96.71-4.73,15.7-4.17,29.79-11.27,40.1-24.16,19.06-23.83,21.32-51.26,15.7-79.93-4.62-23.57-19.99-38.15-41.76-46.24-15.15-5.64-31.24-7.56-47.28-8.1-20.28-.68-40.61.06-60.91-.43-6.43-.15-7.39,2.2-7.33,7.82.26,24.62.11,49.24.11,73.87Z"/>
    <path class="cls-1" d="m394.05,301.91c0,77.43,0,154.87,0,232.3,0,2.28.1,4.58-.14,6.85-.25,2.42-1.79,3.35-4.25,3.22-2.2-.11-3.28-1.13-3.39-3.22-.1-2.03-.09-4.06-.09-6.09.1-155.63.2-311.26.3-466.89,0-.51-.09-1.04.02-1.52.7-3.07-2.03-8.38,3.53-8.39,5.33,0,3.67,5.19,3.68,8.38.08,78.45.06,156.9.06,235.35h.28Z"/>
    <path class="cls-1" d="m406.15,535.07c0-3.37,0-5.89,0-8.4.09-152.86.18-305.73.27-458.59,0-.25-.05-.52,0-.76.74-3.32-2.14-9.07,3.64-9.11,5.74-.04,3.68,5.7,3.69,9.05.18,151.85.23,303.7.36,455.54,0,5.36-.36,10.15-7.97,12.27Z"/>
    <path class="cls-1" d="m374,226.39c0,52.06,0,104.11,0,156.17,0,1.52-.09,3.05.01,4.57.2,2.99-.53,4.77-4.13,4.71-3.31-.05-3.73-1.8-3.62-4.38.07-1.52,0-3.05.01-4.57.09-105.13.15-210.26.38-315.39,0-3.24-2.44-9.18,3.21-9.21,6.07-.04,3.81,6.1,3.82,9.64.14,52.82.1,105.64.1,158.46h.22Z"/>
    <path class="cls-1" d="m366.19,505.43c1.1-12.36-1.33-24.61-1.09-36.95.06-2.9-.29-5.33,4.11-5.3,4.36.03,4.89,2,4.87,5.58-.09,20.09.02,40.19-.09,60.28-.01,1.87,1.47,5.26-2.03,5.31-2.93.04-5.23-2.36-5.45-5.41-.38-5.29-.26-10.61-.32-15.91-.03-2.53,0-5.06,0-7.59Z"/>
  </g>
  <g>
    <path class="cls-1" d="m30.91,680.24h68.05c23.3,0,40.66,3.36,52.08,10.07,11.42,6.71,17.13,18.71,17.13,35.99,0,19.13-6.94,32.33-20.83,39.58-12.96,6.64-31.09,9.95-54.39,9.95h-1.85v62.03h28.93v4.4H30.91v-4.4h15.04v-153.23h-15.04v-4.4Zm60.18,4.4v86.8h4.86c9.26,0,15.66-3.16,19.21-9.49,3.55-6.33,5.33-16.59,5.33-30.78v-11.11c0-13.11-1.66-22.3-4.98-27.55-3.32-5.24-9.37-7.87-18.17-7.87h-6.25Z"/>
    <path class="cls-1" d="m179.97,680.24h70.59v4.4h-12.73v153.23h12.73v4.4h-70.59v-4.4h12.73v-153.23h-12.73v-4.4Z"/>
    <path class="cls-1" d="m261.21,680.24h120.36l2.32,45.83h-4.17c-6.48-15.58-13.27-26.27-20.37-32.06-7.1-5.79-17.51-8.68-31.25-8.68h-8.1v71.52h7.87c7.25,0,13.35-2.74,18.29-8.22,4.94-5.48,8.41-12.85,10.42-22.11h3.47v68.51h-3.93c-2.78-11.57-6.52-19.83-11.23-24.77-4.71-4.94-11.15-7.41-19.33-7.41h-5.56v74.3h8.79c14.19,0,26.27-4.24,36.22-12.73,9.95-8.48,16.78-19.36,20.48-32.64h4.63l-1.85,50.46h-127.07v-5.09h13.66v-151.83h-13.66v-5.09Z"/>
    <path class="cls-1" d="m476.7,760.32h-12.27v77.54h15.05v4.4h-75.22v-4.4h15.04v-153.23h-15.04v-4.4h69.9c20.06,0,34.29,1.04,42.7,3.13,8.41,2.08,14.31,4.59,17.71,7.52,7.41,6.02,11.11,15.59,11.11,28.7s-3.24,22.49-9.72,28.12c-6.48,5.63-16.36,8.99-29.63,10.07v.7c12.5,1.7,21.22,5.4,26.15,11.11,4.94,5.71,7.41,15.28,7.41,28.7v12.27c0,8.03.42,13.42,1.27,16.2.84,2.78,2.66,4.17,5.44,4.17s4.98-1.27,6.6-3.82c1.62-2.55,3.13-7.91,4.51-16.09l3.93.46c-1.7,13.12-4.67,21.91-8.91,26.39-4.25,4.47-12.69,6.71-25.34,6.71s-21.64-2.97-26.97-8.91c-5.32-5.94-7.99-17.09-7.99-33.44v-16.9c0-8.64-1.12-14.96-3.36-18.98-2.24-4.01-6.36-6.02-12.38-6.02Zm-12.27-75.69v71.29h7.41c8.79,0,15.31-2.7,19.56-8.1,4.24-5.4,6.37-14.19,6.37-26.38v-6.71c0-12.19-2.05-20.25-6.13-24.19-4.09-3.93-10.61-5.9-19.56-5.9h-7.64Z"/>
    <path class="cls-1" d="m642.42,760.32h-12.27v77.54h15.05v4.4h-75.22v-4.4h15.04v-153.23h-15.04v-4.4h69.9c20.06,0,34.29,1.04,42.7,3.13,8.41,2.08,14.31,4.59,17.71,7.52,7.41,6.02,11.11,15.59,11.11,28.7s-3.24,22.49-9.72,28.12c-6.48,5.63-16.36,8.99-29.63,10.07v.7c12.5,1.7,21.22,5.4,26.15,11.11,4.94,5.71,7.41,15.28,7.41,28.7v12.27c0,8.03.42,13.42,1.27,16.2.84,2.78,2.66,4.17,5.44,4.17s4.98-1.27,6.6-3.82c1.62-2.55,3.13-7.91,4.51-16.09l3.93.46c-1.7,13.12-4.67,21.91-8.91,26.39-4.25,4.47-12.69,6.71-25.34,6.71s-21.64-2.97-26.97-8.91c-5.32-5.94-7.99-17.09-7.99-33.44v-16.9c0-8.64-1.12-14.96-3.36-18.98-2.24-4.01-6.36-6.02-12.38-6.02Zm-12.27-75.69v71.29h7.41c8.79,0,15.31-2.7,19.56-8.1,4.24-5.4,6.37-14.19,6.37-26.38v-6.71c0-12.19-2.05-20.25-6.13-24.19-4.09-3.93-10.61-5.9-19.56-5.9h-7.64Z"/>
    <path class="cls-1" d="m737.08,680.24h120.36l2.32,45.83h-4.17c-6.48-15.58-13.27-26.27-20.37-32.06-7.1-5.79-17.51-8.68-31.25-8.68h-8.1v71.52h7.87c7.25,0,13.35-2.74,18.29-8.22,4.94-5.48,8.41-12.85,10.42-22.11h3.47v68.51h-3.93c-2.78-11.57-6.52-19.83-11.23-24.77-4.71-4.94-11.15-7.41-19.33-7.41h-5.56v74.3h8.79c14.19,0,26.27-4.24,36.22-12.73,9.95-8.48,16.78-19.36,20.48-32.64h4.63l-1.85,50.46h-127.07v-5.09h13.66v-151.83h-13.66v-5.09Z"/>
    <path class="cls-2" d="m894.94,730.93l-6.71-61.57c6.17-3.08,11.19-4.63,15.04-4.63,5.24,0,7.87,2.86,7.87,8.56,0,3.55-.69,8.64-2.08,15.28l-9.26,42.36h-4.86Z"/>
    <path class="cls-1" d="m994.93,839.71c7.71,0,14.54-2.08,20.48-6.25,5.94-4.17,8.91-10.45,8.91-18.86s-3.2-14.85-9.6-19.33c-6.41-4.47-15.51-8.37-27.31-11.69-11.8-3.32-20.37-6.21-25.69-8.68-5.32-2.47-10.38-5.71-15.16-9.72-9.57-8.02-14.35-20.44-14.35-37.26,0-13.73,4.9-25.54,14.7-35.41,9.8-9.87,23.18-14.81,40.16-14.81,8.18,0,16.7,1.2,25.58,3.59,8.87,2.39,14.39,3.59,16.55,3.59s4.09-1.54,5.79-4.63h2.54l1.62,46.75h-3.7c-7.41-13.42-15.16-24.19-23.26-32.29-8.1-8.1-16.9-12.15-26.39-12.15s-16.86,2.2-22.1,6.6c-5.25,4.4-7.87,10.26-7.87,17.59s3.13,12.96,9.37,16.9c6.25,3.93,13.92,7.14,23.03,9.61,9.1,2.47,15.08,4.17,17.94,5.09,2.85.93,6.4,2.2,10.65,3.82,4.24,1.62,7.71,3.32,10.42,5.09,2.7,1.78,5.56,4.02,8.56,6.71,3.01,2.7,5.36,5.67,7.06,8.91,4.17,7.41,6.25,16.2,6.25,26.38,0,16.67-5.21,30.05-15.62,40.16-10.42,10.11-24.11,15.16-41.08,15.16-8.79,0-18.86-1.16-30.21-3.47-11.34-2.31-17.63-3.47-18.86-3.47-2.16,0-4.25,2.32-6.25,6.94h-3.24l-2.31-55.09h3.93c6.79,13.42,15.47,25.15,26.04,35.18,10.57,10.03,21.72,15.04,33.45,15.04Z"/>
  </g>
  <g>
    <path class="cls-2" d="m30.91,875.14h82.37v5.03h-24.25v150.09h8.24c12.96,0,23.3-3.96,31-11.9,7.7-7.93,15.52-20.14,23.45-36.61h4.8l-4.35,53.54H30.91v-5.03h13.5v-150.09h-13.5v-5.03Z"/>
    <path class="cls-2" d="m175.06,875.14h69.79v4.35h-12.58v151.47h12.58v4.35h-69.79v-4.35h12.58v-151.47h-12.58v-4.35Z"/>
    <path class="cls-2" d="m262.23,875.14h68.41c21.2,0,37.1,2.86,47.71,8.58,10.6,5.72,15.9,15.37,15.9,28.94,0,20.9-12.59,33.41-37.75,37.52v.46c30.51,3.82,45.76,17.09,45.76,39.81,0,16.63-6.25,28.26-18.76,34.89-12.51,6.64-30.51,9.95-54,9.95h-67.27v-4.35h14.87v-151.47h-14.87v-4.35Zm59.49,4.35v70.47h5.95c7.93,0,13.46-2.4,16.59-7.21,3.12-4.81,4.69-12.16,4.69-22.08v-10.75c0-11.29-1.37-19.18-4.12-23.68-2.74-4.5-8.01-6.75-15.79-6.75h-7.32Zm0,74.82v76.65h10.75c8.39,0,14.26-2.9,17.62-8.69,3.35-5.8,5.03-14.34,5.03-25.63v-12.13c0-10.07-2.06-17.62-6.18-22.65-4.12-5.03-11.44-7.55-21.97-7.55h-5.26Z"/>
    <path class="cls-2" d="m490.12,954.3h-12.13v76.65h14.87v4.35h-74.36v-4.35h14.87v-151.47h-14.87v-4.35h69.1c19.83,0,33.9,1.03,42.22,3.09,8.31,2.06,14.15,4.54,17.5,7.44,7.32,5.95,10.98,15.41,10.98,28.37s-3.2,22.23-9.61,27.8c-6.41,5.57-16.17,8.89-29.29,9.95v.69c12.36,1.68,20.97,5.34,25.85,10.98,4.88,5.65,7.32,15.1,7.32,28.37v12.13c0,7.93.42,13.27,1.26,16.02.83,2.75,2.63,4.12,5.38,4.12s4.92-1.26,6.52-3.77c1.6-2.52,3.09-7.82,4.46-15.9l3.89.46c-1.68,12.97-4.62,21.66-8.81,26.08-4.2,4.42-12.55,6.63-25.05,6.63s-21.39-2.93-26.66-8.81c-5.26-5.87-7.89-16.89-7.89-33.06v-16.7c0-8.54-1.11-14.79-3.32-18.76-2.21-3.97-6.29-5.95-12.24-5.95Zm-12.13-74.82v70.47h7.32c8.69,0,15.14-2.67,19.33-8.01,4.2-5.34,6.29-14.03,6.29-26.08v-6.64c0-12.05-2.02-20.02-6.06-23.91-4.04-3.89-10.49-5.83-19.33-5.83h-7.55Z"/>
    <path class="cls-2" d="m682.32,1030.95l-16.7-49.42h-45.3l-17.62,49.42h17.16v4.35h-35.01v-4.35h10.75l58.35-157.19h18.76l57.66,157.19h10.52v4.35h-74.82v-4.35h16.24Zm-38.44-114.4l-21.51,59.95h41.41l-19.91-59.95Z"/>
    <path class="cls-2" d="m824.18,954.3h-12.13v76.65h14.87v4.35h-74.36v-4.35h14.87v-151.47h-14.87v-4.35h69.1c19.83,0,33.9,1.03,42.22,3.09,8.31,2.06,14.15,4.54,17.5,7.44,7.32,5.95,10.98,15.41,10.98,28.37s-3.2,22.23-9.61,27.8c-6.41,5.57-16.17,8.89-29.29,9.95v.69c12.36,1.68,20.97,5.34,25.85,10.98,4.88,5.65,7.32,15.1,7.32,28.37v12.13c0,7.93.42,13.27,1.26,16.02.83,2.75,2.63,4.12,5.38,4.12s4.92-1.26,6.52-3.77c1.6-2.52,3.09-7.82,4.46-15.9l3.89.46c-1.68,12.97-4.62,21.66-8.81,26.08-4.2,4.42-12.55,6.63-25.05,6.63s-21.39-2.93-26.66-8.81c-5.26-5.87-7.89-16.89-7.89-33.06v-16.7c0-8.54-1.11-14.79-3.32-18.76-2.21-3.97-6.29-5.95-12.24-5.95Zm-12.13-74.82v70.47h7.32c8.69,0,15.14-2.67,19.33-8.01,4.2-5.34,6.29-14.03,6.29-26.08v-6.64c0-12.05-2.02-20.02-6.06-23.91-4.04-3.89-10.49-5.83-19.33-5.83h-7.55Z"/>
    <path class="cls-2" d="m994.64,950.41l32.49-71.62h-23.11v-3.66h45.07v3.66h-15.1l-34.55,76.42v75.73h13.96v4.35h-72.53v-4.35h13.96v-71.39l-38.9-80.77h-10.75v-3.66h73.22v3.66h-14.87l31.12,71.62Z"/>
  </g>
</svg>